<svg width="96" height="66" viewBox="0 0 96 66" fill="none" xmlns="http://www.w3.org/2000/svg">
<path d="M30.3955 51.3428C32.8857 55.6396 35.5713 58.8013 38.4521 60.8276C41.3574 62.854 44.6533 64.0137 48.3398 64.3066V65.4785C44.9707 65.3564 41.3696 64.6729 37.5366 63.4277C33.7036 62.207 30.0659 60.498 26.6235 58.3008C23.2056 56.1279 20.2515 53.8086 17.7612 51.3428C14.2456 49.9268 11.4624 48.4253 9.41162 46.8384C6.43311 44.4702 4.11377 41.5649 2.45361 38.1226C0.817871 34.6558 0 30.5664 0 25.8545C0 18.4326 2.40479 12.2681 7.21436 7.36084C12.0239 2.45361 17.8467 0 24.6826 0C31.1768 0 36.792 2.46582 41.5283 7.39746C46.2891 12.3047 48.6694 18.5059 48.6694 26.001C48.6694 32.0801 46.9727 37.4146 43.5791 42.0044C40.21 46.5942 35.8154 49.707 30.3955 51.3428ZM24.2432 2.81982C19.7998 2.81982 16.2231 4.40674 13.5132 7.58057C10.0952 11.5601 8.38623 17.6514 8.38623 25.8545C8.38623 33.8867 10.1196 40.0757 13.5864 44.4214C16.272 47.7661 19.8242 49.4385 24.2432 49.4385C28.833 49.4385 32.5317 47.7661 35.3394 44.4214C38.6353 40.4663 40.2832 34.6313 40.2832 26.9165C40.2832 20.9839 39.3799 15.9912 37.5732 11.9385C36.1816 8.81348 34.3262 6.51855 32.0068 5.05371C29.7119 3.56445 27.124 2.81982 24.2432 2.81982ZM94.5557 37.0605L95.7642 37.3169L91.5161 50.7935H53.064V49.4385H54.9316C57.0312 49.4385 58.5327 48.7549 59.436 47.3877C59.9487 46.6064 60.2051 44.7998 60.2051 41.9678V9.92432C60.2051 6.82373 59.8633 4.88281 59.1797 4.10156C58.2275 3.02734 56.8115 2.49023 54.9316 2.49023H53.064V1.13525H75.5493V2.49023C72.9126 2.46582 71.0571 2.70996 69.9829 3.22266C68.9331 3.73535 68.2129 4.38232 67.8223 5.16357C67.4316 5.94482 67.2363 7.8125 67.2363 10.7666V41.9678C67.2363 43.9941 67.4316 45.3857 67.8223 46.1426C68.1152 46.6553 68.5669 47.0337 69.1772 47.2778C69.7876 47.522 71.6919 47.644 74.8901 47.644H78.5156C82.3242 47.644 84.9976 47.3633 86.5356 46.8018C88.0737 46.2402 89.4775 45.2515 90.7471 43.8354C92.0166 42.395 93.2861 40.1367 94.5557 37.0605Z" fill="white"/>
</svg>
