<svg width="104" height="63" viewBox="0 0 104 63" fill="none" xmlns="http://www.w3.org/2000/svg">
<g clip-path="url(#clip0_633_15825)">
<path d="M62.1775 8.26558H58.2197L59.0643 3.50902L58.0451 4.18603C57.3291 4.66121 55.851 5.64494 55.0795 6.15826L51.9996 0L48.9197 6.15985L44.9349 3.50902L45.7795 8.26558H41.8217L34.8809 18.0139L52.0012 33.7536L69.1215 18.0139L62.1807 8.26558H62.1775ZM51.7091 12.9506L51.9996 13.1445L52.2901 12.9506C52.3235 12.9284 56.032 10.4587 57.3926 9.55285L60.2089 15.1851L56.5782 17.6023L57.7244 19.8955L55.1843 22.718L52.5219 21.7041V20.3072L54.8302 18.7704V15.6475L57.6974 13.7373L57.2259 12.7949L53.784 15.0865V18.2094L51.998 19.3981L50.2136 18.2094V15.0865L46.7717 12.7949L46.3002 13.7373L49.1674 15.6475V18.7704L51.4757 20.3087V21.7057L48.8134 22.7196L46.2732 19.8971L47.4195 17.6039L43.7887 15.1867L46.605 9.55444C47.964 10.4603 51.6742 12.93 51.7075 12.9522L51.7091 12.9506ZM51.9996 26.2604L49.5659 23.5555L51.9996 22.6274L54.4333 23.5555L51.9996 26.2604ZM43.0489 15.9527L46.07 17.9646L45.2397 19.6238L41.1422 22.3525L36.7812 18.3429L43.0489 15.9543V15.9527ZM45.5604 20.6679L48.037 23.4205L46.2336 27.028L41.9376 23.0788L45.5604 20.6663V20.6679ZM48.7895 24.258L51.4757 27.2441V31.8497L47.0353 27.767L48.7895 24.258ZM52.5219 27.2441L55.2081 24.258L56.9623 27.767L52.5219 31.8497V27.2441ZM55.9606 23.422L58.4372 20.6695L62.06 23.082L57.7641 27.0312L55.9606 23.4236V23.422ZM58.7563 19.6222L57.926 17.963L60.9471 15.9511L67.2149 18.3397L62.8538 22.3493L58.7563 19.6206V19.6222ZM67.2863 17.2463L61.2599 14.9483L58.442 9.31288H61.6393L67.2879 17.2463H67.2863ZM49.3246 7.6871L51.998 2.34093L54.6715 7.6871L55.1636 7.35972C55.1636 7.35972 56.5019 6.46975 57.6037 5.73711L57.1163 8.47694C56.2971 9.02205 52.9998 11.2184 51.9964 11.8858C50.9931 11.2184 47.6957 9.02205 46.8765 8.47694L46.3891 5.73711L49.3214 7.68869L49.3246 7.6871ZM42.3599 9.31288H45.5573L42.7393 14.9483L36.7129 17.2463L42.3615 9.31288H42.3599Z" fill="white"/>
<path d="M27.599 60.6464C27.2625 60.5495 27.1942 60.5288 26.845 60.4318C26.7052 60.3937 26.6084 60.327 26.6084 60.1839V59.8009C26.6084 59.6484 26.6925 59.5514 26.8513 59.5514H27.4832C27.6435 59.5514 27.7276 59.6484 27.7276 59.7993V60.0902H28.0229V59.7485C28.0229 59.4751 27.8245 59.2812 27.5594 59.2812H26.7799C26.51 59.2812 26.3131 59.4767 26.3131 59.7501V60.2396C26.3131 60.497 26.5036 60.6226 26.756 60.6941C27.072 60.7831 27.1768 60.8117 27.5054 60.9039C27.6689 60.9499 27.7403 61.0135 27.7403 61.1518V61.5697C27.7403 61.7207 27.6562 61.8145 27.4959 61.8145H26.8386C26.6783 61.8145 26.5941 61.7223 26.5941 61.5713V61.2757H26.2988V61.6222C26.2988 61.8924 26.4973 62.0894 26.7672 62.0894H27.5705C27.8404 62.0894 28.034 61.8908 28.0325 61.6206V61.1057C28.0325 60.8403 27.8388 60.7179 27.5943 60.6464H27.599Z" fill="white"/>
<path d="M34.4629 59.5523H35.3011L35.3027 62.0855H35.598L35.5964 59.5523H36.4299V59.2773L34.4629 59.2789V59.5523Z" fill="white"/>
<path d="M44.3071 59.2789V61.5674C44.3071 61.7184 44.215 61.8122 44.0642 61.8122H43.3816C43.2292 61.8122 43.1371 61.72 43.1371 61.5674V59.2789H42.8418V61.6183C42.8418 61.8884 43.0418 62.0855 43.307 62.0855H44.1357C44.4056 62.0855 44.6024 61.8869 44.6024 61.6167V59.2773H44.3055L44.3071 59.2789Z" fill="white"/>
<path d="M52.3965 59.2773H51.1328V62.0839H52.3965C52.6664 62.0839 52.8633 61.8853 52.8633 61.6151V59.7446C52.8633 59.4712 52.6648 59.2773 52.3949 59.2773H52.3965ZM52.3251 61.8106H51.4281V59.5523H52.3251C52.4775 59.5523 52.5696 59.6445 52.5696 59.7954V61.5658C52.5696 61.7184 52.4791 61.8106 52.3267 61.8106H52.3251Z" fill="white"/>
<path d="M60.4242 59.2734H60.1289V62.08H60.4242V59.2734Z" fill="white"/>
<path d="M68.9959 59.2697H68.1085C67.8434 59.2697 67.6449 59.4635 67.6465 59.7385V61.609C67.6465 61.8792 67.8449 62.0762 68.1101 62.0762H68.9991C69.269 62.0762 69.4658 61.8776 69.4658 61.6074V59.7369C69.4658 59.4635 69.2674 59.2697 68.9975 59.2697H68.9959ZM68.9261 61.8029H68.1847C68.0339 61.8029 67.9402 61.7107 67.9402 61.5597V59.7893C67.9402 59.6368 68.0323 59.5446 68.1831 59.5446H68.9229C69.0753 59.5446 69.1674 59.6368 69.1674 59.7893V61.5597C69.1674 61.7107 69.0753 61.8045 68.9245 61.8045L68.9261 61.8029Z" fill="white"/>
<path d="M77.2587 60.6332C76.9221 60.5363 76.8555 60.5156 76.5046 60.4187C76.3665 60.3805 76.2697 60.3138 76.2697 60.1707V59.7877C76.2697 59.6368 76.3538 59.5398 76.5141 59.5398H77.146C77.3063 59.5398 77.3905 59.6368 77.3905 59.7877V60.0786H77.6858V59.7369C77.6858 59.462 77.4873 59.2697 77.2222 59.2697H76.4443C76.1744 59.2697 75.9775 59.4635 75.9775 59.7385V60.228C75.9775 60.4854 76.1681 60.611 76.4205 60.6825C76.7364 60.7715 76.8412 60.8001 77.1698 60.8923C77.3349 60.9383 77.4064 61.0019 77.4064 61.1402V61.5581C77.4064 61.7107 77.3222 61.8029 77.1619 61.8029H76.5046C76.3443 61.8029 76.2601 61.7107 76.2601 61.5597V61.2641H75.9648V61.609C75.9648 61.8792 76.1633 62.0762 76.4332 62.0762H77.2381C77.508 62.0762 77.7016 61.8776 77.7001 61.6074V61.0925C77.7001 60.8271 77.5064 60.7047 77.2619 60.6332H77.2587Z" fill="white"/>
<path d="M44.8523 35.6904C42.8472 33.8723 40.1309 32.8711 37.205 32.8711C34.2791 32.8711 31.5835 33.8723 29.5831 35.6904C27.4971 37.5863 26.3477 40.2483 26.3477 43.1868V43.6302C26.3477 46.5671 27.4971 49.2306 29.5831 51.1266C31.585 52.9446 34.2918 53.9458 37.205 53.9458C40.1182 53.9458 42.8472 52.9446 44.8523 51.1266C46.9416 49.2306 48.0926 46.5687 48.0926 43.6302V43.1868C48.0926 40.2483 46.9416 37.5863 44.8523 35.6904ZM44.2618 43.6858C44.2618 48.3025 41.3597 51.527 37.205 51.527C33.0504 51.527 30.1769 48.3025 30.1769 43.6858V43.1311C30.1769 38.5144 33.0662 35.2915 37.205 35.2915C41.3438 35.2915 44.2618 38.516 44.2618 43.1311V43.6858Z" fill="white"/>
<path d="M65.7107 41.1494C62.4721 40.2705 61.0274 39.6078 61.0274 38.0027V37.8088C61.0274 37.3877 61.1893 35.2915 64.401 35.2915C66.6712 35.2915 68.6747 36.5438 70.0416 38.818L70.2035 39.0897L71.1608 41.0477V34.365L70.7877 34.2331C68.8334 33.5433 66.7299 32.8711 64.3994 32.8711C62.3784 32.8711 60.6495 33.4543 59.3985 34.5557C58.2777 35.5426 57.6268 36.9077 57.6093 38.3015V38.5574C57.6093 40.0353 58.1713 41.2972 59.2811 42.3063C60.278 43.2154 61.7386 43.9258 63.6199 44.4184L63.6294 44.4216C67.6491 45.3958 69.0732 46.4574 69.0732 48.4805V48.641C69.0478 50.0777 67.7825 51.5239 65.0074 51.5239C62.58 51.5239 60.2717 49.879 58.5095 46.8913L58.3476 46.6163L57.3887 44.7522V51.7464L57.7125 51.8973C60.0193 52.9605 62.4991 53.9443 65.0074 53.9443C67.1856 53.9443 69.07 53.361 70.4544 52.2565C71.8022 51.1822 72.5436 49.7026 72.5436 48.0911V47.8972C72.5436 46.1141 71.9324 44.6902 70.6766 43.5475C69.5717 42.5431 67.9476 41.7581 65.7107 41.1494Z" fill="white"/>
<path d="M102.358 45.1137L104 42.8078H100.148V35.3066L101.685 33.1484H95.0299L96.5667 35.3066V42.8078H86.4682V35.3066L88.0049 33.1484H81.3514L82.8882 35.3066V51.512L81.0879 53.6701H88.2685L86.4682 51.512V45.1137H96.5667V51.512L94.7664 53.6701H101.947L100.148 51.512V45.1137H102.358Z" fill="white"/>
<path d="M18.8047 51.6502C17.9649 50.9112 17.1124 49.856 16.2519 48.4877L16.2472 48.4797C15.4375 47.2354 14.4643 45.9099 13.1863 44.9596C15.0073 44.5877 16.1567 43.7836 16.8393 43.0954C17.857 42.0688 18.4412 40.7179 18.4412 39.3893V39.0016C18.4412 37.5649 17.7824 36.1425 16.6314 35.0984C15.2264 33.8239 13.1403 33.1484 10.6002 33.1484H0.600101L3.84033 35.3066V42.8094H0L1.64155 45.1153H3.84191V51.5136L2.04161 53.6717H9.22218L7.42347 51.5136V45.217H7.55524C9.74449 45.217 10.5161 46.4423 12.0544 48.8818L12.0989 48.9517C12.8006 50.0531 13.6102 51.2021 14.785 52.1429C16.2313 53.303 17.9697 53.9101 19.951 53.9498H22.9864V53.7607C21.1543 53.4016 19.7954 52.5736 18.8063 51.6534L18.8047 51.6502ZM10.7399 42.7935H7.42188V35.5672H10.4637C14.3643 35.5672 14.6675 38.1736 14.6675 38.973V39.4164C14.6675 40.4319 14.2849 42.7935 10.7399 42.7935Z" fill="white"/>
</g>
<defs>
<clipPath id="clip0_633_15825">
<rect width="104" height="62.0896" fill="white"/>
</clipPath>
</defs>
</svg>
